<svg width="21" height="20" viewBox="0 0 21 20" fill="none" xmlns="http://www.w3.org/2000/svg">
<path fill-rule="evenodd" clip-rule="evenodd" d="M6.22217 9.99924C6.22217 7.85146 7.96328 6.11035 10.1111 6.11035C12.2589 6.11035 13.9999 7.85146 13.9999 9.99924C13.9999 12.147 12.2589 13.8881 10.1111 13.8881C7.96328 13.8881 6.22217 12.147 6.22217 9.99924ZM10.1111 7.66591C8.82244 7.66591 7.77772 8.71062 7.77772 9.99924C7.77772 11.2879 8.82244 12.3326 10.1111 12.3326C11.3997 12.3326 12.4444 11.2879 12.4444 9.99924C12.4444 8.71062 11.3997 7.66591 10.1111 7.66591Z" fill="#42526E"/>
<path fill-rule="evenodd" clip-rule="evenodd" d="M2.15022 8.59627C1.71558 9.22253 1.55556 9.71243 1.55556 10C1.55556 10.2876 1.71558 10.7775 2.15022 11.4037C2.57037 12.0092 3.19488 12.6655 3.98499 13.2719C5.56866 14.4874 7.73987 15.4444 10.1111 15.4444C12.4823 15.4444 14.6535 14.4874 16.2372 13.2719C17.0273 12.6655 17.6518 12.0092 18.072 11.4037C18.5067 10.7775 18.6667 10.2876 18.6667 10C18.6667 9.71243 18.5067 9.22253 18.072 8.59627C17.6518 7.99084 17.0273 7.33452 16.2372 6.72812C14.6535 5.51266 12.4823 4.55556 10.1111 4.55556C7.73987 4.55556 5.56866 5.51266 3.98499 6.72812C3.19488 7.33452 2.57037 7.99084 2.15022 8.59627ZM3.03791 5.4941C4.83223 4.11697 7.32768 3 10.1111 3C12.8945 3 15.3899 4.11697 17.1843 5.4941C18.0832 6.18399 18.8255 6.95364 19.35 7.70934C19.8599 8.44413 20.2222 9.25053 20.2222 10C20.2222 10.7495 19.8599 11.5559 19.35 12.2907C18.8255 13.0464 18.0832 13.816 17.1843 14.5059C15.3899 15.883 12.8945 17 10.1111 17C7.32768 17 4.83223 15.883 3.03791 14.5059C2.13901 13.816 1.39669 13.0464 0.872252 12.2907C0.36231 11.5559 0 10.7495 0 10C0 9.25053 0.36231 8.44413 0.872252 7.70934C1.39669 6.95364 2.13901 6.18399 3.03791 5.4941Z" fill="#42526E"/>
</svg>
