<svg width="19" height="19" viewBox="0 0 19 19" fill="none" xmlns="http://www.w3.org/2000/svg">
<path d="M4.85341 10.6444H9.48621C9.69457 10.6444 9.86921 10.5739 10.0102 10.433C10.1511 10.292 10.2216 10.1174 10.2216 9.90905V3.88824C10.2216 3.68602 10.1511 3.51443 10.0102 3.37349C9.86921 3.23254 9.69457 3.16207 9.48621 3.16207C9.28399 3.16207 9.1124 3.23254 8.97146 3.37349C8.83051 3.51443 8.76004 3.68602 8.76004 3.88824V9.18287H4.85341C4.64506 9.18287 4.47041 9.25335 4.32946 9.39429C4.18852 9.52911 4.11805 9.70069 4.11805 9.90905C4.11805 10.1174 4.18852 10.292 4.32946 10.433C4.47041 10.5739 4.64506 10.6444 4.85341 10.6444ZM9.4954 18.9908C10.7945 18.9908 12.0171 18.7426 13.163 18.2463C14.309 17.756 15.3201 17.0727 16.1964 16.1964C17.0727 15.3201 17.7591 14.309 18.2554 13.163C18.7518 12.0171 19 10.7945 19 9.4954C19 8.19626 18.7518 6.97371 18.2554 5.82777C17.7591 4.68183 17.0727 3.67376 16.1964 2.80358C15.3201 1.92727 14.309 1.24093 13.163 0.744557C12.0171 0.248186 10.7915 0 9.48621 0C8.18707 0 6.96452 0.248186 5.81858 0.744557C4.67876 1.24093 3.6707 1.92727 2.79439 2.80358C1.92421 3.67376 1.24093 4.68183 0.744557 5.82777C0.248186 6.97371 0 8.19626 0 9.4954C0 10.7945 0.248186 12.0171 0.744557 13.163C1.24093 14.309 1.92421 15.3201 2.79439 16.1964C3.6707 17.0727 4.68183 17.756 5.82777 18.2463C6.97371 18.7426 8.19626 18.9908 9.4954 18.9908ZM9.4954 17.1156C8.44138 17.1156 7.4517 16.9195 6.52637 16.5273C5.60716 16.1351 4.79826 15.5897 4.09966 14.8911C3.40719 14.1925 2.86486 13.3836 2.47267 12.4644C2.08047 11.5452 1.88437 10.5556 1.88437 9.4954C1.88437 8.44138 2.08047 7.45477 2.47267 6.53556C2.86486 5.61022 3.40719 4.79826 4.09966 4.09966C4.79213 3.40106 5.59797 2.85567 6.51717 2.46347C7.44251 2.07128 8.43219 1.87518 9.48621 1.87518C10.5464 1.87518 11.536 2.07128 12.4552 2.46347C13.3745 2.85567 14.1834 3.40106 14.882 4.09966C15.5867 4.79826 16.1351 5.61022 16.5273 6.53556C16.9195 7.45477 17.1156 8.44138 17.1156 9.4954C17.1156 10.5556 16.9195 11.5452 16.5273 12.4644C16.1351 13.3836 15.5897 14.1925 14.8911 14.8911C14.1987 15.5897 13.3898 16.1351 12.4644 16.5273C11.5452 16.9195 10.5556 17.1156 9.4954 17.1156Z" fill="#9696A0"/>
</svg>
