<svg width="19" height="17" viewBox="0 0 19 17" fill="none" xmlns="http://www.w3.org/2000/svg">
<path d="M11.1484 16.6562V15.3984H16.6719C16.8229 15.3984 16.9349 15.362 17.0078 15.2891C17.0807 15.2161 17.1172 15.1016 17.1172 14.9453V5.55469C17.1172 5.39844 17.0807 5.28385 17.0078 5.21094C16.9349 5.13802 16.8229 5.10156 16.6719 5.10156H11.7109V3.84375H17.0859C17.4818 3.84375 17.7943 3.97396 18.0234 4.23438C18.2578 4.48958 18.375 4.83333 18.375 5.26562V15.2344C18.375 15.6667 18.2578 16.0104 18.0234 16.2656C17.7943 16.526 17.4818 16.6562 17.0859 16.6562H11.1484ZM14.1484 8.14062C13.9766 8.14062 13.8906 8.05208 13.8906 7.875V6.65625C13.8906 6.47917 13.9766 6.39062 14.1484 6.39062H15.4062C15.5833 6.39062 15.6719 6.47917 15.6719 6.65625V7.875C15.6719 8.05208 15.5833 8.14062 15.4062 8.14062H14.1484ZM14.1484 11.125C13.9766 11.125 13.8906 11.0365 13.8906 10.8594V9.64062C13.8906 9.46354 13.9766 9.375 14.1484 9.375H15.4062C15.5833 9.375 15.6719 9.46354 15.6719 9.64062V10.8594C15.6719 11.0365 15.5833 11.125 15.4062 11.125H14.1484ZM14.1484 14.1094C13.9766 14.1094 13.8906 14.0208 13.8906 13.8438V12.625C13.8906 12.4479 13.9766 12.3594 14.1484 12.3594H15.4062C15.5833 12.3594 15.6719 12.4479 15.6719 12.625V13.8438C15.6719 14.0208 15.5833 14.1094 15.4062 14.1094H14.1484ZM0 15.2344V1.42188C0 0.984375 0.114583 0.638021 0.34375 0.382812C0.578125 0.127604 0.895833 0 1.29688 0H11.1484C11.5443 0 11.8568 0.127604 12.0859 0.382812C12.3203 0.638021 12.4375 0.984375 12.4375 1.42188V15.2344C12.4375 15.6667 12.3203 16.0104 12.0859 16.2656C11.8568 16.526 11.5443 16.6562 11.1484 16.6562H1.29688C0.895833 16.6562 0.578125 16.526 0.34375 16.2656C0.114583 16.0104 0 15.6667 0 15.2344ZM1.25781 14.9453C1.25781 15.1016 1.29427 15.2161 1.36719 15.2891C1.4401 15.362 1.55469 15.3984 1.71094 15.3984H10.7344C10.8854 15.3984 10.9974 15.362 11.0703 15.2891C11.1432 15.2161 11.1797 15.1016 11.1797 14.9453V1.71094C11.1797 1.55469 11.1432 1.4401 11.0703 1.36719C10.9974 1.29427 10.8854 1.25781 10.7344 1.25781H1.71094C1.55469 1.25781 1.4401 1.29427 1.36719 1.36719C1.29427 1.4401 1.25781 1.55469 1.25781 1.71094V14.9453ZM3.5 15.9922V13.0938C3.5 12.7552 3.57552 12.5078 3.72656 12.3516C3.88281 12.1901 4.11979 12.1094 4.4375 12.1094H8C8.32292 12.1094 8.5599 12.1901 8.71094 12.3516C8.86198 12.5078 8.9375 12.7552 8.9375 13.0938V15.9922H7.91406V13.3828C7.91406 13.2161 7.83073 13.1328 7.66406 13.1328H4.77344C4.60677 13.1328 4.52344 13.2161 4.52344 13.3828V15.9922H3.5ZM3.625 4.67188C3.42188 4.67188 3.32031 4.5651 3.32031 4.35156V2.875C3.32031 2.66146 3.42188 2.55469 3.625 2.55469H5.14844C5.36198 2.55469 5.46875 2.66146 5.46875 2.875V4.35156C5.46875 4.5651 5.36198 4.67188 5.14844 4.67188H3.625ZM7.28906 4.67188C7.08073 4.67188 6.97656 4.5651 6.97656 4.35156V2.875C6.97656 2.66146 7.08073 2.55469 7.28906 2.55469H8.80469C9.01823 2.55469 9.125 2.66146 9.125 2.875V4.35156C9.125 4.5651 9.01823 4.67188 8.80469 4.67188H7.28906ZM3.625 7.76562C3.42188 7.76562 3.32031 7.65885 3.32031 7.44531V5.96875C3.32031 5.75521 3.42188 5.64844 3.625 5.64844H5.14844C5.36198 5.64844 5.46875 5.75521 5.46875 5.96875V7.44531C5.46875 7.65885 5.36198 7.76562 5.14844 7.76562H3.625ZM7.28906 7.76562C7.08073 7.76562 6.97656 7.65885 6.97656 7.44531V5.96875C6.97656 5.75521 7.08073 5.64844 7.28906 5.64844H8.80469C9.01823 5.64844 9.125 5.75521 9.125 5.96875V7.44531C9.125 7.65885 9.01823 7.76562 8.80469 7.76562H7.28906ZM3.625 10.8594C3.42188 10.8594 3.32031 10.7526 3.32031 10.5391V9.0625C3.32031 8.84896 3.42188 8.74219 3.625 8.74219H5.14844C5.36198 8.74219 5.46875 8.84896 5.46875 9.0625V10.5391C5.46875 10.7526 5.36198 10.8594 5.14844 10.8594H3.625ZM7.28906 10.8594C7.08073 10.8594 6.97656 10.7526 6.97656 10.5391V9.0625C6.97656 8.84896 7.08073 8.74219 7.28906 8.74219H8.80469C9.01823 8.74219 9.125 8.84896 9.125 9.0625V10.5391C9.125 10.7526 9.01823 10.8594 8.80469 10.8594H7.28906Z" fill="black"/>
</svg>
