<svg width="22" height="10" viewBox="0 0 22 10" fill="none" xmlns="http://www.w3.org/2000/svg">
<path d="M1.61883 8.59692C1.1061 8.59692 0.707076 8.45333 0.421765 8.16615C0.140588 7.87897 0 7.47487 0 6.95385V5.73538C0 5.00513 0.239827 4.40615 0.719481 3.93846C1.19914 3.47077 1.86693 3.18564 2.72286 3.08308L5.47674 2.75077L7.97632 1.19385C8.35673 0.955897 8.71854 0.761026 9.06174 0.609231C9.40494 0.453333 9.76262 0.332308 10.1348 0.246154C10.511 0.155897 10.9349 0.0923077 11.4063 0.0553846C11.8818 0.0184615 12.4379 0 13.0747 0H14.5323C15.1732 0 15.7438 0.0758974 16.2442 0.227692C16.7486 0.375385 17.1931 0.566154 17.5777 0.8C17.9622 1.03385 18.2951 1.28615 18.5763 1.55692C18.8616 1.82359 19.1055 2.0759 19.3081 2.31385L20.5858 2.70154C20.9704 2.82051 21.264 2.97846 21.4666 3.17538C21.6692 3.36821 21.8077 3.59179 21.8822 3.84615C21.9607 4.09641 22 4.36513 22 4.65231V7.13231C22 7.58359 21.8718 7.94051 21.6154 8.20308C21.3591 8.46564 21.0076 8.59692 20.561 8.59692H18.843V7.60615H20.3812C20.5755 7.60615 20.7264 7.54256 20.8339 7.41538C20.9456 7.28821 21.0014 7.11179 21.0014 6.88615V4.65231C21.0014 4.41436 20.9518 4.21333 20.8526 4.04923C20.7533 3.88513 20.561 3.76821 20.2757 3.69846L18.7561 3.30462C18.169 2.49231 17.5281 1.90359 16.8334 1.53846C16.1428 1.17333 15.3758 0.990769 14.5323 0.990769H13.0747C12.4834 0.990769 11.9748 1.00718 11.5489 1.04C11.123 1.06872 10.7447 1.12205 10.4139 1.2C10.0872 1.27385 9.77295 1.38051 9.4711 1.52C9.17339 1.65538 8.85293 1.82769 8.50973 2.03692L5.81787 3.69846L2.85312 4.06769C2.25355 4.14154 1.79457 4.32205 1.47618 4.60923C1.15779 4.89641 0.99859 5.27179 0.99859 5.73538V6.83077C0.99859 7.08103 1.05648 7.27385 1.17226 7.40923C1.28804 7.54051 1.4555 7.60615 1.67465 7.60615H3.51677V8.59692H1.61883ZM6.41951 8.59692V7.60615H15.9899V8.59692H6.41951ZM4.93093 10C4.53397 10 4.17423 9.90564 3.85171 9.71692C3.53331 9.53231 3.27902 9.28205 3.08881 8.96615C2.90273 8.64615 2.8097 8.28923 2.8097 7.89538C2.8097 7.50154 2.90273 7.14667 3.08881 6.83077C3.27902 6.51077 3.53331 6.25846 3.85171 6.07385C4.17423 5.88513 4.53397 5.79077 4.93093 5.79077C5.32788 5.79077 5.68556 5.88513 6.00395 6.07385C6.32647 6.25846 6.58077 6.51077 6.76685 6.83077C6.95705 7.14667 7.05216 7.50154 7.05216 7.89538C7.05216 8.28923 6.95705 8.64615 6.76685 8.96615C6.58077 9.28205 6.32647 9.53231 6.00395 9.71692C5.68556 9.90564 5.32788 10 4.93093 10ZM4.93093 9.00923C5.14181 9.00923 5.33202 8.96 5.50155 8.86154C5.67108 8.76308 5.80547 8.62974 5.90471 8.46154C6.00395 8.29333 6.05357 8.10462 6.05357 7.89538C6.05357 7.68615 6.00395 7.49744 5.90471 7.32923C5.80547 7.16103 5.67108 7.02769 5.50155 6.92923C5.33202 6.83077 5.14181 6.78154 4.93093 6.78154C4.72005 6.78154 4.52984 6.83077 4.3603 6.92923C4.19077 7.02769 4.05639 7.16103 3.95715 7.32923C3.85791 7.49744 3.80829 7.68615 3.80829 7.89538C3.80829 8.10462 3.85791 8.29333 3.95715 8.46154C4.05639 8.62974 4.19077 8.76308 4.3603 8.86154C4.52984 8.96 4.72005 9.00923 4.93093 9.00923ZM17.4598 10C17.0629 10 16.7031 9.90564 16.3806 9.71692C16.0622 9.53231 15.8079 9.28205 15.6177 8.96615C15.4316 8.64615 15.3386 8.28923 15.3386 7.89538C15.3386 7.50154 15.4316 7.14667 15.6177 6.83077C15.8079 6.51077 16.0622 6.25846 16.3806 6.07385C16.7031 5.88513 17.0629 5.79077 17.4598 5.79077C17.8568 5.79077 18.2145 5.88513 18.5328 6.07385C18.8554 6.25846 19.1097 6.51077 19.2957 6.83077C19.486 7.14667 19.5811 7.50154 19.5811 7.89538C19.5811 8.28923 19.486 8.64615 19.2957 8.96615C19.1097 9.28205 18.8554 9.53231 18.5328 9.71692C18.2145 9.90564 17.8568 10 17.4598 10ZM17.4598 9.00923C17.6707 9.00923 17.8609 8.96 18.0304 8.86154C18.2 8.76308 18.3344 8.62974 18.4336 8.46154C18.5328 8.29333 18.5825 8.10462 18.5825 7.89538C18.5825 7.68615 18.5328 7.49744 18.4336 7.32923C18.3344 7.16103 18.2 7.02769 18.0304 6.92923C17.8609 6.83077 17.6707 6.78154 17.4598 6.78154C17.2489 6.78154 17.0587 6.83077 16.8892 6.92923C16.7197 7.02769 16.5853 7.16103 16.486 7.32923C16.3868 7.49744 16.3372 7.68615 16.3372 7.89538C16.3372 8.10462 16.3868 8.29333 16.486 8.46154C16.5853 8.62974 16.7197 8.76308 16.8892 8.86154C17.0587 8.96 17.2489 9.00923 17.4598 9.00923Z" fill="black"/>
</svg>
