<svg width="18" height="18" viewBox="0 0 18 18" fill="none" xmlns="http://www.w3.org/2000/svg">
<path d="M9.21101 16.6094C8.65372 17.1667 8.08861 17.4453 7.5157 17.4453C6.94278 17.4505 6.36986 17.1693 5.79695 16.6016L0.851633 11.6641C0.278716 11.0911 -0.00513795 10.5182 7.03829e-05 9.94531C0.00527872 9.3724 0.286529 8.80729 0.84382 8.25L8.48445 0.625C8.67715 0.432292 8.85163 0.291667 9.00788 0.203125C9.16934 0.114583 9.34382 0.0598958 9.53132 0.0390625C9.71882 0.0130208 9.94799 0 10.2188 0H13.1954C13.4714 0 13.6954 0.0260417 13.8673 0.078125C14.0443 0.125 14.2058 0.208333 14.3516 0.328125C14.4975 0.442708 14.6693 0.596354 14.8673 0.789062L16.6641 2.58594C16.862 2.78385 17.0183 2.95833 17.1329 3.10938C17.2475 3.25521 17.3282 3.41667 17.3751 3.59375C17.4272 3.76562 17.4532 3.98958 17.4532 4.26562V7.23438C17.4532 7.51042 17.4402 7.74219 17.4141 7.92969C17.3933 8.11198 17.3386 8.28385 17.2501 8.44531C17.1667 8.60156 17.0261 8.77865 16.8282 8.97656L9.21101 16.6094ZM8.36726 15.6641L15.9454 8.08594C16.0235 8.00781 16.0834 7.92448 16.1251 7.83594C16.1719 7.7474 16.1954 7.63802 16.1954 7.50781V4.21094C16.1954 3.9974 16.112 3.80729 15.9454 3.64062L13.8126 1.51562C13.6459 1.34375 13.4558 1.25781 13.2423 1.25781H9.9532C9.82299 1.25781 9.71101 1.28125 9.61726 1.32812C9.52872 1.375 9.44538 1.4375 9.36726 1.51562L1.78132 9.08594C1.50528 9.36198 1.36465 9.64844 1.35945 9.94531C1.35945 10.237 1.50267 10.526 1.78913 10.8125L6.6407 15.6562C7.21882 16.2396 7.79434 16.2422 8.36726 15.6641ZM12.2813 6.25C11.974 6.25 11.7188 6.14583 11.5157 5.9375C11.3126 5.72917 11.211 5.47656 11.211 5.17969C11.211 4.8776 11.3126 4.625 11.5157 4.42188C11.7188 4.21354 11.974 4.10938 12.2813 4.10938C12.5886 4.10938 12.8438 4.21354 13.0469 4.42188C13.2501 4.625 13.3516 4.8776 13.3516 5.17969C13.3516 5.47656 13.2501 5.72917 13.0469 5.9375C12.8438 6.14583 12.5886 6.25 12.2813 6.25Z" fill="black"/>
</svg>
