<svg width="18" height="18" viewBox="0 0 18 18" fill="none" xmlns="http://www.w3.org/2000/svg">
<path d="M7.74219 11.543C7.59635 11.543 7.47135 11.4961 7.36719 11.4023C7.26823 11.3034 7.21875 11.181 7.21875 11.0352C7.21875 10.8893 7.26823 10.7695 7.36719 10.6758C7.47135 10.5768 7.59635 10.5273 7.74219 10.5273H8.64062V7.20703H7.86719C7.72135 7.20703 7.59635 7.16016 7.49219 7.06641C7.38802 6.96745 7.33594 6.84505 7.33594 6.69922C7.33594 6.55859 7.38802 6.4388 7.49219 6.33984C7.59635 6.24089 7.72135 6.19141 7.86719 6.19141H9.22656C9.40885 6.19141 9.54688 6.2513 9.64062 6.37109C9.73958 6.49089 9.78906 6.64714 9.78906 6.83984V10.5273H10.6875C10.8385 10.5273 10.9635 10.5768 11.0625 10.6758C11.1667 10.7695 11.2188 10.8893 11.2188 11.0352C11.2188 11.181 11.1667 11.3034 11.0625 11.4023C10.9635 11.4961 10.8385 11.543 10.6875 11.543H7.74219ZM8.94531 4.98828C8.6849 4.98828 8.46094 4.89714 8.27344 4.71484C8.09115 4.52734 8 4.30339 8 4.04297C8 3.77734 8.09115 3.55339 8.27344 3.37109C8.46094 3.1888 8.6849 3.09766 8.94531 3.09766C9.21094 3.09766 9.4349 3.1888 9.61719 3.37109C9.79948 3.55339 9.89062 3.77734 9.89062 4.04297C9.89062 4.30339 9.79948 4.52734 9.61719 4.71484C9.4349 4.89714 9.21094 4.98828 8.94531 4.98828ZM5.19531 17.082C4.92448 17.082 4.71354 16.9909 4.5625 16.8086C4.41667 16.6315 4.34375 16.3919 4.34375 16.0898V14.0586H3.96875C3.19271 14.0586 2.53906 13.9206 2.00781 13.6445C1.47656 13.3633 1.07292 12.957 0.796875 12.4258C0.526042 11.8945 0.390625 11.2461 0.390625 10.4805V4.49609C0.390625 3.73047 0.526042 3.08203 0.796875 2.55078C1.07292 2.01953 1.47656 1.61589 2.00781 1.33984C2.53906 1.05859 3.19271 0.917969 3.96875 0.917969H14.0312C14.8073 0.917969 15.4609 1.05859 15.9922 1.33984C16.5234 1.61589 16.9245 2.01953 17.1953 2.55078C17.4714 3.08203 17.6094 3.73047 17.6094 4.49609V10.4805C17.6094 11.2461 17.4714 11.8945 17.1953 12.4258C16.9245 12.957 16.5234 13.3633 15.9922 13.6445C15.4609 13.9206 14.8073 14.0586 14.0312 14.0586H9.01562L6.32031 16.457C6.08594 16.6654 5.88802 16.8216 5.72656 16.9258C5.5651 17.0299 5.38802 17.082 5.19531 17.082ZM5.51562 15.6523L8.01562 13.168C8.16146 13.0169 8.30208 12.918 8.4375 12.8711C8.57292 12.8242 8.75 12.8008 8.96875 12.8008H14.0312C14.8177 12.8008 15.401 12.6055 15.7812 12.2148C16.1615 11.819 16.3516 11.2383 16.3516 10.4727V4.49609C16.3516 3.73568 16.1615 3.16016 15.7812 2.76953C15.401 2.3737 14.8177 2.17578 14.0312 2.17578H3.96875C3.17708 2.17578 2.59115 2.3737 2.21094 2.76953C1.83594 3.16016 1.64844 3.73568 1.64844 4.49609V10.4727C1.64844 11.2383 1.83594 11.819 2.21094 12.2148C2.59115 12.6055 3.17708 12.8008 3.96875 12.8008H4.92969C5.14323 12.8008 5.29427 12.8451 5.38281 12.9336C5.47135 13.0221 5.51562 13.1732 5.51562 13.3867V15.6523Z" fill="black"/>
</svg>
