<svg width="18" height="18" viewBox="0 0 18 18" fill="none" xmlns="http://www.w3.org/2000/svg">
<path d="M9.33398 15.9961C9.12305 15.9961 8.90918 15.9346 8.69238 15.8115C8.48145 15.6943 8.30566 15.542 8.16504 15.3545C8.03027 15.1729 7.96289 14.9824 7.96289 14.7832C7.96289 14.4785 8.01855 14.2061 8.12988 13.9658C8.24707 13.7256 8.30273 13.4707 8.29688 13.2012C8.29688 13.0898 8.13867 12.9229 7.82227 12.7002C7.50586 12.4717 7.08984 12.1641 6.57422 11.7773C6.07617 11.4082 5.82715 10.9688 5.82715 10.459C5.82715 10.1895 5.86816 9.95508 5.9502 9.75586C6.03223 9.55664 6.07324 9.41016 6.07324 9.31641C6.07324 9.25195 6.03223 9.18457 5.9502 9.11426C5.86816 9.03809 5.74512 8.92676 5.58105 8.78027L4.18359 7.5498C3.47461 6.92285 2.98828 6.34277 2.72461 5.80957C2.4668 5.27637 2.36426 4.78418 2.41699 4.33301C2.47559 3.87598 2.62793 3.45117 2.87402 3.05859L3.73535 3.23438C3.50098 3.62695 3.35742 4.00195 3.30469 4.35938C3.25195 4.7168 3.33691 5.09473 3.55957 5.49316C3.78223 5.8916 4.18652 6.35449 4.77246 6.88184L6.17871 8.13867C6.20801 8.15625 6.23438 8.17676 6.25781 8.2002C6.28125 8.22363 6.30762 8.24707 6.33691 8.27051C6.54785 8.45215 6.70312 8.61914 6.80273 8.77148C6.9082 8.91797 6.96094 9.09082 6.96094 9.29004C6.96094 9.4248 6.91699 9.64453 6.8291 9.94922C6.75293 10.1836 6.71484 10.3535 6.71484 10.459C6.71484 10.6641 6.84668 10.8662 7.11035 11.0654C7.2041 11.1357 7.29785 11.2061 7.3916 11.2764C7.49121 11.3467 7.58789 11.4141 7.68164 11.4785C8.19727 11.8418 8.5752 12.1465 8.81543 12.3926C9.05566 12.6328 9.17871 12.8965 9.18457 13.1836C9.19043 13.3945 9.16699 13.5938 9.11426 13.7812C9.06738 13.9688 9.02051 14.1328 8.97363 14.2734C8.9209 14.4258 8.88574 14.5312 8.86816 14.5898C8.85645 14.6484 8.85059 14.7012 8.85059 14.748C8.85059 14.8301 8.90039 14.9121 9 14.9941C9.10547 15.0703 9.20801 15.1084 9.30762 15.1084C9.45996 15.1084 9.67969 14.9736 9.9668 14.7041C10.2539 14.4346 10.5645 14.0918 10.8984 13.6758C11.2324 13.2539 11.5518 12.8145 11.8564 12.3574C12.1611 11.9004 12.4102 11.4756 12.6035 11.083C12.7969 10.6846 12.8936 10.3828 12.8936 10.1777C12.8936 10.0605 12.8057 9.90234 12.6299 9.70312C12.46 9.49805 12.249 9.29004 11.9971 9.0791C11.751 8.86816 11.5049 8.69238 11.2588 8.55176C11.0127 8.40527 10.8164 8.33203 10.6699 8.33203C10.5762 8.33203 10.4297 8.38477 10.2305 8.49023C10.0312 8.5957 9.82031 8.70117 9.59766 8.80664C9.375 8.90625 9.18164 8.95605 9.01758 8.95605C8.8125 8.95605 8.56934 8.88574 8.28809 8.74512C8.0127 8.59863 7.74316 8.41406 7.47949 8.19141C7.22168 7.96289 7.00488 7.72559 6.8291 7.47949C6.65332 7.2334 6.56543 7.01074 6.56543 6.81152C6.56543 6.62402 6.62988 6.43945 6.75879 6.25781C6.8877 6.07617 7.04883 5.92676 7.24219 5.80957C7.43555 5.68652 7.63184 5.625 7.83105 5.625C7.99512 5.625 8.19434 5.69531 8.42871 5.83594C8.66895 5.9707 8.89453 6.10547 9.10547 6.24023C9.32227 6.375 9.48047 6.44238 9.58008 6.44238C9.65625 6.44238 9.71777 6.41895 9.76465 6.37207C9.81152 6.3252 9.83496 6.2666 9.83496 6.19629C9.83496 6.09668 9.79395 5.98242 9.71191 5.85352C9.62988 5.71875 9.49805 5.52832 9.31641 5.28223C9.22852 5.15918 9.20215 5.04785 9.2373 4.94824C9.27246 4.84863 9.33984 4.77246 9.43945 4.71973C9.69141 4.58496 9.9873 4.42969 10.3271 4.25391C10.6729 4.07227 11.0186 3.87305 11.3643 3.65625C11.71 3.43945 12.0176 3.20508 12.2871 2.95312C12.5625 2.70117 12.7588 2.4375 12.876 2.16211L13.667 2.5752C13.5322 2.87402 13.333 3.1582 13.0693 3.42773C12.8057 3.69727 12.5127 3.94629 12.1904 4.1748C11.8682 4.40332 11.5488 4.6084 11.2324 4.79004C10.916 4.96582 10.6348 5.11523 10.3887 5.23828C10.6113 5.56055 10.7227 5.8418 10.7227 6.08203C10.7227 6.46289 10.6113 6.76758 10.3887 6.99609C10.166 7.21875 9.87012 7.33008 9.50098 7.33008C9.33105 7.33008 9.13184 7.2627 8.90332 7.12793C8.6748 6.99316 8.45801 6.8584 8.25293 6.72363C8.05371 6.58301 7.91309 6.5127 7.83105 6.5127C7.74902 6.5127 7.66406 6.54785 7.57617 6.61816C7.49414 6.68262 7.45312 6.74707 7.45312 6.81152C7.45312 6.89355 7.51465 7.00488 7.6377 7.14551C7.76074 7.28613 7.91016 7.42676 8.08594 7.56738C8.26172 7.70801 8.43457 7.82812 8.60449 7.92773C8.78027 8.02148 8.91797 8.06836 9.01758 8.06836C9.16406 8.06836 9.33398 8.01855 9.52734 7.91895C9.7207 7.81348 9.91699 7.71094 10.1162 7.61133C10.3154 7.50586 10.5 7.45312 10.6699 7.45312C10.9453 7.45312 11.2588 7.54688 11.6104 7.73438C11.9619 7.92188 12.3018 8.15918 12.6299 8.44629C12.9639 8.7334 13.2393 9.03223 13.4561 9.34277C13.6729 9.65332 13.7812 9.93164 13.7812 10.1777C13.7812 10.5 13.6699 10.9043 13.4473 11.3906C13.2246 11.877 12.9346 12.3867 12.5771 12.9199C12.2256 13.4473 11.8477 13.9453 11.4434 14.4141C11.0391 14.8828 10.6494 15.2637 10.2744 15.5566C9.89941 15.8496 9.58594 15.9961 9.33398 15.9961ZM8.96484 17.9297C7.74023 17.9297 6.58594 17.6953 5.50195 17.2266C4.42383 16.7578 3.47168 16.1104 2.64551 15.2842C1.81934 14.458 1.17188 13.5059 0.703125 12.4277C0.234375 11.3438 0 10.1895 0 8.96484C0 7.74023 0.234375 6.58887 0.703125 5.51074C1.17188 4.42676 1.81641 3.47168 2.63672 2.64551C3.46289 1.81934 4.41504 1.17188 5.49316 0.703125C6.57715 0.234375 7.73145 0 8.95605 0C10.1807 0 11.335 0.234375 12.4189 0.703125C13.5029 1.17188 14.458 1.81934 15.2842 2.64551C16.1104 3.47168 16.7578 4.42676 17.2266 5.51074C17.6953 6.58887 17.9297 7.74023 17.9297 8.96484C17.9297 10.1895 17.6953 11.3438 17.2266 12.4277C16.7578 13.5059 16.1104 14.458 15.2842 15.2842C14.458 16.1104 13.5029 16.7578 12.4189 17.2266C11.3408 17.6953 10.1895 17.9297 8.96484 17.9297ZM8.96484 16.7344C10.0254 16.7344 11.0244 16.5293 11.9619 16.1191C12.8994 15.7148 13.7256 15.1553 14.4404 14.4404C15.1553 13.7256 15.7148 12.8994 16.1191 11.9619C16.5293 11.0244 16.7344 10.0254 16.7344 8.96484C16.7344 7.9043 16.5293 6.90527 16.1191 5.96777C15.7148 5.03027 15.1523 4.2041 14.4316 3.48926C13.7168 2.77441 12.8906 2.21484 11.9531 1.81055C11.0156 1.40039 10.0166 1.19531 8.95605 1.19531C7.89551 1.19531 6.89648 1.40039 5.95898 1.81055C5.02148 2.21484 4.19531 2.77441 3.48047 3.48926C2.77148 4.2041 2.21191 5.03027 1.80176 5.96777C1.39746 6.90527 1.19531 7.9043 1.19531 8.96484C1.19531 10.0254 1.39746 11.0244 1.80176 11.9619C2.21191 12.8994 2.77441 13.7256 3.48926 14.4404C4.2041 15.1553 5.03027 15.7148 5.96777 16.1191C6.90527 16.5293 7.9043 16.7344 8.96484 16.7344Z" fill="black"/>
</svg>
