<?xml version="1.0" encoding="UTF-8"?>
<svg width="60px" height="60px" viewBox="0 0 60 60" version="1.1" xmlns="http://www.w3.org/2000/svg" xmlns:xlink="http://www.w3.org/1999/xlink">
    <!-- Generator: sketchtool 57.1 (101010) - https://sketch.com -->
    <title>4A6C84B8-CEAA-4D2A-A4D7-7A671E6D5002</title>
    <desc>Created with sketchtool.</desc>
    <defs>
        <linearGradient x1="50%" y1="0%" x2="50%" y2="100%" id="linearGradient-1">
            <stop stop-color="#FF976C" offset="0%"></stop>
            <stop stop-color="#FF8453" offset="100%"></stop>
        </linearGradient>
    </defs>
    <g id="Asset-Artboard-Page" stroke="none" stroke-width="1" fill="none" fill-rule="evenodd">
        <g id="rocket-copy">
            <g id="rocket">
                <rect id="Rectangle" x="0" y="0" width="60" height="60"></rect>
                <g id="Group-43" transform="translate(1.000000, 1.000000)">
                    <path d="M2.36621094,29 L49.3569336,6.07666016 L53.9204102,0.993693391 C51.783144,0.858031403 49.9940815,1.09499689 48.5532227,1.70458984 C25.7124023,12.8583984 25.7124023,12.8583984 3.71044922,22.2363281 C0.0499674479,24.8710938 -0.398111979,27.125651 2.36621094,29 Z" id="Path-37" fill="#EEEEEE"></path>
                    <path d="M33.3027344,55.3027344 L50.5742188,9.79199219 L56.0044988,3.51220703 L56.0044988,7.34960937 C49.6844423,25.1995443 44.367513,40.5883647 40.0537109,53.5160706 C38.4743608,56.852145 36.2240353,57.4476996 33.3027344,55.3027344 Z" id="Path-38" fill="#EEEEEE"></path>
                    <path d="M9.33939981,35.7129517 C9.33939981,42.625084 9.33939981,46.949669 9.33939981,48.6867065 C9.33939981,53.7448282 13.8014197,56.5656411 24.1189408,48.2091675 C21.4850704,46.1225789 16.5585567,41.9571737 9.33939981,35.7129517 Z" id="Path-18-Copy" fill="url(#linearGradient-1)"></path>
                    <path d="M56.2346635,2.61701363 C57.2162919,3.96137399 57.2162919,5.45173043 56.4755082,7.25025338 C48.5134369,29.9287265 47.6223588,33.2764375 40.2236772,54.5407197 C38.5388627,58.1206757 35.725142,57.7486584 33.7941425,56.4889659 C30.2351213,53.510529 25.3049556,49.395575 19.0036454,44.144104 C32.7273189,28.8934591 45.1376583,15.0510957 56.2346635,2.61701363 Z M55.9613156,4.42495183 C45.3131719,16.3524096 33.4733265,29.5577164 20.4417542,44.0409014 C26.3359473,48.953586 30.9848955,52.83411 34.3887118,55.6825685 C36.335624,56.9286738 38.1217253,56.6154108 39.2970195,54.1609273 C42.1923514,45.8392533 43.5702525,41.8040295 46.9246106,31.8925431 L46.9246106,31.8925431 L46.9472324,31.8257007 C50.0681033,22.6042994 52.0368701,16.8741289 55.5508691,6.86940888 C55.9469816,5.9077012 56.0832932,5.11985397 55.9613156,4.42495183 Z M54.64189,0.977853477 C43.3542924,13.4182832 30.9267208,27.3299826 17.3591752,42.7129517 C11.3417598,37.6937521 5.97530476,33.1222098 1.25980996,28.9983247 C-0.612243075,27.2884004 -0.612243075,24.0850312 2.72807168,22.1929414 C15.0868902,16.9705293 29.3208451,10.016916 49.8289018,0.560215716 C52.0330033,-0.405935585 53.3335404,-0.0284812933 54.64189,0.977853477 Z M50.2476476,1.46831921 C45.7301567,3.55143015 41.3832941,5.57366936 35.97919,8.1012892 C34.997506,8.56044466 34.0019835,9.02639577 32.7305205,9.62173994 L29.5962544,11.0893778 C27.0950474,12.2603789 25.3389357,13.0813164 23.6449642,13.8708267 C14.6319678,18.0715191 8.7070085,20.7508977 3.17251795,23.0907437 C0.709798801,24.5133407 0.379758523,26.840132 1.91811809,28.2455762 C6.43152629,32.1927286 11.5432107,36.5514931 17.2529928,41.3216825 C30.2501547,26.5908572 42.1961672,13.2167214 53.0911224,1.19918657 C52.2785845,0.857128429 51.4556267,0.938952717 50.2476476,1.46831921 Z" id="Combined-Shape" fill="#9B9B9B" fill-rule="nonzero"></path>
                </g>
            </g>
        </g>
    </g>
</svg>