<?xml version="1.0" encoding="UTF-8"?>
<svg width="60px" height="60px" viewBox="0 0 60 60" version="1.1" xmlns="http://www.w3.org/2000/svg" xmlns:xlink="http://www.w3.org/1999/xlink">
    <title>Babysitter</title>
    <g id="Page-1" stroke="none" stroke-width="1" fill="none" fill-rule="evenodd">
        <g id="Babysitter">
            <rect id="Rectangle" fill-rule="nonzero" x="0" y="0" width="60" height="60"></rect>
            <g id="Group-68" transform="translate(3.3031, 0.2831)">
                <path d="M39.5585415,43.3330099 C39.5585415,43.3330099 29.7960483,32.5509493 10.2710621,10.986828 L10.2710621,7.76990024 C10.8544112,7.07109525 11.1460857,6.72169276 11.1460857,6.72169276 C11.1460857,6.72169276 42.7994785,41.7706434 42.7994785,41.7706434 C42.7994785,41.7706434 39.5585415,43.3330099 39.5585415,43.3330099 Z" id="Path-6" fill="#EAEAEA"></path>
                <path d="M26.5538745,6.06946785 C30.9656341,6.06946785 34.5420717,9.70465248 34.5420717,14.1888799 C34.5420717,17.4626825 32.6358195,20.2839426 29.8899652,21.5684894 L19.4034926,10.3152806 C20.7692215,7.82999436 23.5542299,6.06946785 26.5538745,6.06946785 Z" id="Combined-Shape" fill="#FA9368"></path>
                <path d="M31.7896028,23.0733819 L33.5902072,21.4939252 C35.8680481,19.7146748 38.0202538,19.7146748 40.0468244,21.4939252 C42.1859041,23.6980336 44.3914344,25.9279092 46.6634155,28.1835519 C47.7725679,28.7326315 49.2243457,28.8891519 51.0187491,28.6531129 C53.9030258,29.0071713 54.1677739,31.4045032 53.5127598,32.8176806 C52.3025035,34.5061441 49.9268574,35.7821907 45.5786944,36.7524157 L44.4957292,37.0675109 L31.7896028,23.0733819 Z" id="Path-10-Copy" fill="#FA9368"></path>
                <path d="M11.3681085,6.78565018 L43.419,42.278 L43.2175719,42.6403979 C41.7652477,45.1898591 40.2198751,47.0093461 38.2726334,48.2930345 L37.9774946,48.4815936 C35.6768896,49.9055499 32.8241984,50.6243579 29.4251213,50.655599 C16.7455011,50.7721378 11.6762817,45.5530002 10.4534965,44.1908137 L10.2699991,42.5893458 L10.2709749,35.8995561 L10.2719707,27.054458 L10.2720411,16.8000004 L10.2710294,11.2755427 L10.2700248,8.82536126 L10.2698821,7.8316736 L11.3681085,6.78565018 Z" id="Combined-Shape" stroke="#9B9B9B"></path>
                <path d="M15.2747892,58.2025403 C19.8352291,58.2025403 23.532196,54.4175503 23.532196,49.7485285 C23.532196,45.0795067 19.8352291,41.2945168 15.2747892,41.2945168 C10.7143493,41.2945168 7.01738234,45.0795067 7.01738234,49.7485285 C7.01738234,54.4175503 10.7143493,58.2025403 15.2747892,58.2025403 Z" id="Oval" fill="#FFFFFF"></path>
                <path d="M15.2747892,41.2945168 C19.8352291,41.2945168 23.532196,45.0795067 23.532196,49.7485285 C23.532196,54.4175503 19.8352291,58.2025403 15.2747892,58.2025403 C10.7143493,58.2025403 7.01738234,54.4175503 7.01738234,49.7485285 C7.01738234,45.0795067 10.7143493,41.2945168 15.2747892,41.2945168 Z M15.2747892,42.2945168 C11.271969,42.2945168 8.01738234,45.6265936 8.01738234,49.7485285 C8.01738234,53.8704634 11.271969,57.2025403 15.2747892,57.2025403 C19.2776093,57.2025403 22.532196,53.8704634 22.532196,49.7485285 C22.532196,45.6265936 19.2776093,42.2945168 15.2747892,42.2945168 Z" id="Oval" fill="#9B9B9B" fill-rule="nonzero"></path>
                <path d="M44.175713,58.2025403 C48.7361529,58.2025403 52.4331198,54.4175503 52.4331198,49.7485285 C52.4331198,45.0795067 48.7361529,41.2945168 44.175713,41.2945168 C39.6152732,41.2945168 35.9183062,45.0795067 35.9183062,49.7485285 C35.9183062,54.4175503 39.6152732,58.2025403 44.175713,58.2025403 Z" id="Oval-Copy-2" fill="#FFFFFF"></path>
                <path d="M44.175713,41.2945168 C48.7361529,41.2945168 52.4331198,45.0795067 52.4331198,49.7485285 C52.4331198,54.4175503 48.7361529,58.2025403 44.175713,58.2025403 C39.6152732,58.2025403 35.9183062,54.4175503 35.9183062,49.7485285 C35.9183062,45.0795067 39.6152732,41.2945168 44.175713,41.2945168 Z M44.175713,42.2945168 C40.1728929,42.2945168 36.9183062,45.6265936 36.9183062,49.7485285 C36.9183062,53.8704634 40.1728929,57.2025403 44.175713,57.2025403 C48.1785331,57.2025403 51.4331198,53.8704634 51.4331198,49.7485285 C51.4331198,45.6265936 48.1785332,42.2945168 44.175713,42.2945168 Z" id="Oval-Copy-2" fill="#9B9B9B" fill-rule="nonzero"></path>
                <path d="M24.0450313,0.398579122 C22.6982444,4.30993234 23.9933657,6.4475434 26.676211,7.37132112 L27.1225404,6.07508634 C25.4279859,5.49160441 24.0704998,4.52057241 25.3366765,0.843328209 L24.0450313,0.398579122 Z" id="Path-11-Copy" fill="#FA9368" transform="translate(25.3149, 3.885) rotate(161) translate(-25.3149, -3.885)"></path>
                <path d="M44.175713,53.9755344 C46.455933,53.9755344 48.3044164,52.0830394 48.3044164,49.7485285 C48.3044164,47.4140176 46.455933,45.5215226 44.175713,45.5215226 C41.8954931,45.5215226 40.0470096,47.4140176 40.0470096,49.7485285 C40.0470096,52.0830394 41.8954931,53.9755344 44.175713,53.9755344 Z" id="Oval-Copy-8" fill="#EEEEEE"></path>
                <path d="M44.175713,45.5215226 C46.455933,45.5215226 48.3044164,47.4140176 48.3044164,49.7485285 C48.3044164,52.0830394 46.455933,53.9755344 44.175713,53.9755344 C41.8954931,53.9755344 40.0470096,52.0830394 40.0470096,49.7485285 C40.0470096,47.4140176 41.8954931,45.5215226 44.175713,45.5215226 Z M44.175713,46.5215226 C42.4531128,46.5215226 41.0470096,47.9611045 41.0470096,49.7485285 C41.0470096,51.5359525 42.4531128,52.9755344 44.175713,52.9755344 C45.8983132,52.9755344 47.3044164,51.5359525 47.3044164,49.7485285 C47.3044164,47.9611045 45.8983133,46.5215226 44.175713,46.5215226 Z" id="Oval-Copy-8" fill="#9B9B9B" fill-rule="nonzero"></path>
                <path d="M15.2747892,53.9755344 C17.5550091,53.9755344 19.4034926,52.0830394 19.4034926,49.7485285 C19.4034926,47.4140176 17.5550091,45.5215226 15.2747892,45.5215226 C12.9945692,45.5215226 11.1460857,47.4140176 11.1460857,49.7485285 C11.1460857,52.0830394 12.9945692,53.9755344 15.2747892,53.9755344 Z" id="Oval-Copy-8" fill="#EEEEEE"></path>
                <path d="M15.2747892,45.5215226 C17.5550091,45.5215226 19.4034926,47.4140176 19.4034926,49.7485285 C19.4034926,52.0830394 17.5550091,53.9755344 15.2747892,53.9755344 C12.9945692,53.9755344 11.1460857,52.0830394 11.1460857,49.7485285 C11.1460857,47.4140176 12.9945692,45.5215226 15.2747892,45.5215226 Z M15.2747892,46.5215226 C13.5521889,46.5215226 12.1460857,47.9611045 12.1460857,49.7485285 C12.1460857,51.5359525 13.5521889,52.9755344 15.2747892,52.9755344 C16.9973894,52.9755344 18.4034926,51.5359525 18.4034926,49.7485285 C18.4034926,47.9611045 16.9973894,46.5215226 15.2747892,46.5215226 Z" id="Oval-Copy-8" fill="#9B9B9B" fill-rule="nonzero"></path>
                <path d="M1.94433472,3.43801969 C4.25373874,1.60029685 7.59332383,1.87180012 9.5755543,4.05842641 L16.178477,11.3422032 L15.4375912,12.0138343 L8.83466858,4.73005752 C7.20662502,2.93413979 4.46376031,2.711149 2.56700289,4.22050569 C0.772554273,5.64844951 0.475443429,8.26071472 1.90338725,10.0551633 C1.93834808,10.0986955 1.93834808,10.0986955 1.97408369,10.141594 L3.76181679,12.2682054 L2.99635653,12.9116885 L1.20862343,10.7850772 C1.16428166,10.7318475 1.16428166,10.7318475 1.12090125,10.6778315 C-0.65093271,8.45122781 -0.282268989,5.20985365 1.94433472,3.43801969 Z" id="Path-3" fill="#979797" fill-rule="nonzero"></path>
            </g>
        </g>
    </g>
</svg>