<?xml version="1.0" encoding="UTF-8"?>
<svg width="60px" height="60px" viewBox="0 0 60 60" version="1.1" xmlns="http://www.w3.org/2000/svg" xmlns:xlink="http://www.w3.org/1999/xlink">
    <!-- Generator: sketchtool 57.1 (101010) - https://sketch.com -->
    <title>9D87D91B-6EA8-4475-B280-653182092FF4</title>
    <desc>Created with sketchtool.</desc>
    <g id="Asset-Artboard-Page" stroke="none" stroke-width="1" fill="none" fill-rule="evenodd">
        <g id="caretaker">
            <g>
                <rect id="Rectangle" x="0" y="0" width="60" height="60"></rect>
                <g id="Group-39" transform="translate(1.428571, 1.261905)">
                    <path d="M44.6111189,11.8222366 L44.6111189,16.2753441 L51.4179339,16.2753441 L51.4179339,26.5680513 C52.8123814,26.5680513 53.9537667,26.5680513 54.8420898,26.5680513 C56.3428571,26.5680513 56.3428571,26.0963367 56.3428571,24.8733666 C56.3428571,20.07766 56.3428571,18.2971947 56.3428571,13.348813 C56.3428571,11.8222366 55.9905099,11.8222366 54.3454381,11.8222366 C51.2898437,11.8222366 48.0450707,11.8222366 44.6111189,11.8222366 Z" id="Path-29" fill="#EEEEEE"></path>
                    <path d="M44.6111189,31.5305681 L44.6111189,35.9836756 L51.4179339,35.9836756 L51.4179339,46.2763828 C52.8123814,46.2763828 53.9537667,46.2763828 54.8420898,46.2763828 C56.3428571,46.2763828 56.3428571,45.8046682 56.3428571,44.5816981 C56.3428571,39.7859915 56.3428571,38.0055262 56.3428571,33.0571445 C56.3428571,31.5305681 55.9905099,31.5305681 54.3454381,31.5305681 C51.2898437,31.5305681 48.0450707,31.5305681 44.6111189,31.5305681 Z" id="Path-29-Copy-2" fill="#EEEEEE"></path>
                    <path d="M54.6449519,30.7380952 C56.4079939,30.7380952 57.1428571,31.7885428 57.1428571,33.0571445 L57.1428571,44.076835 C57.1428571,45.4957079 56.5542167,46.724276 54.6449519,46.724276 L44.9678861,46.724276 C41.1207339,49.4171937 38.1816936,51.4379145 36.1507654,52.7864383 C34.1765409,54.0973112 32.1572315,55.4090513 30.0928371,56.7216586 C26.8983337,58.6290577 23.8541565,58.0238534 19.9282975,56.0619741 C12.1020683,51.7145544 9.64978229,50.2639157 0.778366301,44.9152203 C-0.450890418,44.076835 -0.0487172431,41.2952233 0.778366301,40.171961 C2.21790586,37.8804711 4.89104683,37.5841352 7.7495611,38.7311856 C11.9713636,40.6698798 13.5333929,41.4275804 18.3894036,43.2643153 C16.4738006,46.5807007 17.176431,49.6476476 20.6115129,51.9968106 L21.403484,52.538419 L22.2044387,52.0101867 C25.2873502,49.9769962 28.8129858,47.8230022 32.7806811,45.5489562 L31.3599439,43.0700914 C27.7016805,45.1667895 24.4092174,47.1659728 21.4820524,49.068209 C19.5274357,47.3569167 19.7850518,45.4475631 22.4183869,42.6714895 C23.4825822,42.0277942 24.4644017,41.213668 25.0686413,40.7436005 C26.6793615,39.5935041 27.1461257,37.6234436 28.2796545,36.3567275 C29.8015983,34.7125929 32.3413573,30.7380952 37.9677268,30.7380952 L54.6449519,30.7380952 Z M54.6449519,31.5380952 L37.9677268,31.5380952 C35.1238442,31.5380952 32.9825344,32.5735026 31.0487575,34.4683319 C30.4328077,35.0718761 28.7868841,36.9864379 28.8758122,36.8902029 C28.5707908,37.2310637 28.3256815,37.6116346 27.905475,38.3584201 C27.7816219,38.5791543 27.7143618,38.6989108 27.6533743,38.8062974 C26.9429945,40.0571336 26.3922321,40.7815242 25.5598611,41.37503 C25.467958,41.4465259 24.9868581,41.8267017 24.8389978,41.9420537 C24.5021817,42.2048178 24.2050605,42.4290395 23.9040509,42.6447039 C23.5685714,42.8850648 23.2447184,43.1025185 22.9266731,43.2984732 C20.8825647,45.4753381 20.5258111,46.81834 21.5878956,48.0469115 C24.3900308,46.2420615 27.5144051,44.3520435 30.9621374,42.3760092 L31.6562196,41.9782028 L33.8725697,45.8452319 L33.1784876,46.2430384 C29.225741,48.5085166 25.713938,50.6539736 22.6448814,52.6780267 L21.3953921,53.5020691 L20.1599172,52.65716 C16.6987624,50.2901664 15.694265,47.102889 17.2661521,43.6929853 C15.4420337,42.9949433 14.0565501,42.4350154 12.7221279,41.8601689 C12.4914755,41.7608078 12.2598251,41.6599274 12.0238933,41.5561349 C11.3965095,41.2801327 10.7490097,40.9882401 9.91401966,40.6062083 C9.43372498,40.3864599 7.5642597,39.5264111 7.45163266,39.4736401 C4.75893689,38.3931285 2.59585451,38.782737 1.42257072,40.6463033 C0.693659517,41.6362378 0.577488103,43.8098658 1.1914296,44.2301081 C10.5760656,49.8882308 12.8717199,51.2269479 20.2859152,55.3463557 C24.3802848,57.3924453 26.9903075,57.6423855 29.6635924,56.0465668 C31.7235661,54.7367703 33.7384488,53.4279057 35.7082392,52.1199771 C37.7326398,50.7757875 40.6668838,48.7583644 44.5091264,46.0688834 L44.7157152,45.924276 L54.6449519,45.924276 C55.8723842,45.924276 56.3428571,45.3334675 56.3428571,44.076835 L56.3428571,33.0571445 C56.3428571,32.0808747 55.8221027,31.5380952 54.6449519,31.5380952 Z M19.9282975,1.81897833 C23.8541565,-0.142901053 26.8983337,-0.748105363 30.0928371,1.15929381 C32.1572315,2.47190112 34.1765409,3.78364121 36.1507654,5.09451407 C38.1816936,6.44303788 41.1207339,8.46375864 44.9678861,11.1566764 L44.9678861,11.1566764 L54.6449519,11.1566764 C56.5542167,11.1566764 57.1428571,12.3852445 57.1428571,13.8041174 L57.1428571,13.8041174 L57.1428571,24.8238079 C57.1428571,26.0924096 56.4079939,27.1428571 54.6449519,27.1428571 L54.6449519,27.1428571 L37.9677268,27.1428571 C32.3413573,27.1428571 29.8015983,23.1683594 28.2796545,21.5242249 C27.1461257,20.2575088 26.6793615,18.2874483 25.0686413,17.1373518 C24.4644017,16.6672843 23.4825822,15.8531582 22.4183869,15.2094629 C19.7850518,12.4333893 19.5274357,10.5240357 21.4820524,8.8127434 C24.4092174,10.7149796 27.7016805,12.7141629 31.3599439,14.810861 L31.3599439,14.810861 L32.7806811,12.3319962 C28.8129858,10.0579502 25.2873502,7.90395616 22.2044387,5.87076568 L22.2044387,5.87076568 L21.403484,5.34253336 L20.6115129,5.88414174 C17.176431,8.23330479 16.4738006,11.3002517 18.3894036,14.6166371 C13.5333929,16.453372 11.9713636,17.2110726 7.7495611,19.1497667 C4.89104683,20.2968171 2.21790586,20.0004813 0.778366301,17.7089914 C-0.0487172431,16.5857291 -0.450890418,13.8041174 0.778366301,12.9657321 C9.64978229,7.61703666 12.1020683,6.16639794 19.9282975,1.81897833 Z M29.6635924,1.83438562 C26.9903075,0.238566907 24.3802848,0.488507056 20.2859152,2.53459663 C12.8717199,6.65400451 10.5760656,7.99272162 1.1914296,13.6508442 C0.577488103,14.0710865 0.693659517,16.2447146 1.42257072,17.234649 C2.59585451,19.0982154 4.75893689,19.4878238 7.45163266,18.4073123 C7.5642597,18.3545413 9.43372498,17.4944925 9.91401966,17.274744 C10.7490097,16.8927123 11.3965095,16.6008197 12.0238933,16.3248174 C12.2598251,16.221025 12.4914755,16.1201446 12.7221279,16.0207834 C14.0565501,15.445937 15.4420337,14.8860091 17.2661521,14.187967 C15.694265,10.7780634 16.6987624,7.59078597 20.1599172,5.22379237 L20.1599172,5.22379237 L21.3953921,4.37888329 L22.6448814,5.20292571 C25.713938,7.22697883 29.225741,9.37243574 33.1784876,11.637914 L33.1784876,11.637914 L33.8725697,12.0357204 L31.6562196,15.9027496 L30.9621374,15.5049431 C27.5144051,13.5289089 24.3900308,11.6388908 21.5878956,9.83404086 C20.5258111,11.0626124 20.8825647,12.4056142 22.9266731,14.5824792 C23.2447184,14.7784339 23.5685714,14.9958875 23.9040509,15.2362485 C24.2050605,15.4519128 24.5021817,15.6761346 24.8389978,15.9388987 C24.9868581,16.0542507 25.467958,16.4344265 25.5598611,16.5059224 C26.3922321,17.0994282 26.9429945,17.8238188 27.6533743,19.074655 C27.7143618,19.1820415 27.7816219,19.3017981 27.905475,19.5225322 C28.3256815,20.2693178 28.5707908,20.6498887 28.8758122,20.9907495 C28.7868841,20.8945144 30.4328077,22.8090762 31.0487575,23.4126205 C32.9825344,25.3074498 35.1238442,26.3428571 37.9677268,26.3428571 L37.9677268,26.3428571 L54.6449519,26.3428571 C55.8221027,26.3428571 56.3428571,25.8000777 56.3428571,24.8238079 L56.3428571,24.8238079 L56.3428571,13.8041174 C56.3428571,12.5474848 55.8723842,11.9566764 54.6449519,11.9566764 L54.6449519,11.9566764 L44.7157152,11.9566764 L44.5091264,11.812069 C40.6668838,9.12258797 37.7326398,7.10516485 35.7082392,5.76097532 C33.7384488,4.45304665 31.7235661,3.14418213 29.6635924,1.83438562 Z" id="Combined-Shape" fill="#9B9B9B" fill-rule="nonzero"></path>
                    <path d="M15.5893562,37.452381 C22.3393092,33.4874349 25.7142857,30.0739663 25.7142857,27.2119754 C25.7142857,23.3368875 20.845489,18.9779076 15.5893562,24.2673109 C11.6105233,18.9434209 5.71428571,23.0462649 5.71428571,27.2119754 C5.71428571,30.0862879 9.00597587,33.4997564 15.5893562,37.452381 Z" id="Path-22" fill="#FA9368"></path>
                </g>
            </g>
        </g>
    </g>
</svg>