<?xml version="1.0" encoding="UTF-8"?>
<svg width="60px" height="60px" viewBox="0 0 60 60" version="1.1" xmlns="http://www.w3.org/2000/svg" xmlns:xlink="http://www.w3.org/1999/xlink">
    <title>Cook</title>
    <g id="Page-1" stroke="none" stroke-width="1" fill="none" fill-rule="evenodd">
        <g id="Cook">
            <rect id="Rectangle" x="0" y="0" width="60" height="60"></rect>
            <g id="Group-66" transform="translate(5.7143, 0)">
                <path d="M24.2857143,39.4025239 C30.9920291,39.4025239 36.4285714,33.9659816 36.4285714,27.2596668 C30.9920291,27.2596668 17.8095238,27.2596668 12.1428571,27.2596668 C12.1428571,33.9659816 17.5793995,39.4025239 24.2857143,39.4025239 Z" id="Oval" fill="#EEEEEE"></path>
                <path d="M36.4285714,27.2596668 C36.4285714,33.9659816 30.9920291,39.4025239 24.2857143,39.4025239 C17.5793995,39.4025239 12.1428571,33.9659816 12.1428571,27.2596668 L36.4285714,27.2596668 Z M35.3828571,28.2596668 L13.1878571,28.2596668 L13.202212,28.4167927 C13.7712453,33.9319978 18.362888,38.2538493 23.9935613,38.3987684 L24.2857143,38.4025239 C30.0490123,38.4025239 34.7903724,34.0270876 35.3692166,28.4167927 L35.3828571,28.2596668 Z" id="Oval" fill="#9B9B9B" fill-rule="nonzero"></path>
                <path d="M10.7131464,24.3915027 L37.9065058,24.3915027 C37.9065058,22.6504379 37.9065058,20.5413962 37.9065058,18.0643776 C41.4129929,15.133016 42.3043387,12.8131379 42.3043387,8.56986491 C42.3043387,3.99099586 36.2874581,0.837902046 31.3113374,2.66247559 C26.9893973,-0.887491862 21.8290783,-0.887491862 17.4201776,2.66247559 C9.67633929,0.332722982 6.31531343,4.10799735 6.31531343,8.56986491 C6.31531343,13.1317371 7.40666853,16.3658796 10.7131464,18.0643776 C10.7131464,20.5413962 10.7131464,22.6504379 10.7131464,24.3915027 Z" id="Path-12" fill="#FA9368"></path>
                <path d="M31.2368629,39.7966134 C42.9067073,44.0002485 48.7416295,48.1696356 48.7416295,52.3047747 L48.7416295,59.6722412 L0,59.6722412 L0,53.1367493 C0,48.0049133 5.83492219,43.5582014 17.5047666,39.7966134 L21.4732143,43.2045201 L31.2368629,39.7966134 Z M31.23,40.8576134 L21.8027574,44.1486606 L21.2588061,44.3385215 L20.8217201,43.9631737 L17.28,40.9206134 L16.8009139,41.0808332 C6.35598247,44.587737 1.16351681,48.6045948 1.00380229,52.93052 L1,53.1367493 L1,58.6716134 L47.741,58.6716134 L47.7416295,52.3047747 C47.7416295,48.8310123 42.3415404,44.9197058 31.4065864,40.9220061 L31.23,40.8576134 Z" id="Path-17" fill="#9B9B9B" fill-rule="nonzero"></path>
                <polygon id="Rectangle" fill="#D8D8D8" points="20.7801143 43.5266647 21.7801143 43.5266647 21.7801143 59.6722412 20.7801143 59.6722412"></polygon>
                <polygon id="Rectangle" fill="#979797" fill-rule="nonzero" points="21.7801143 43.5266647 21.7801143 59.6722412 20.7801143 59.6722412 20.7801143 43.5266647"></polygon>
            </g>
        </g>
    </g>
</svg>