<?xml version="1.0" encoding="UTF-8"?>
<svg width="60px" height="60px" viewBox="0 0 60 60" version="1.1" xmlns="http://www.w3.org/2000/svg" xmlns:xlink="http://www.w3.org/1999/xlink">
    <title>Dog Walker</title>
    <g id="Page-1" stroke="none" stroke-width="1" fill="none" fill-rule="evenodd">
        <g id="Dog-Walker">
            <rect id="Rectangle" x="0" y="0" width="60" height="60"></rect>
            <g id="Group-74" transform="translate(1, 0.4286)">
                <path d="M0.377479553,49.7886451 C1.32717387,51.4140647 2.9638443,52.3695472 5.28749084,52.6550925 C17.3555717,52.6550925 23.0290394,52.6550925 36.1203918,52.6550925 C40.7932882,52.3711232 41.0013428,50.0922301 41.0013428,50.0922301 C41.0013428,50.0922301 41.0013428,54.4283851 41.0013428,54.4283851 C41.0013428,54.4283851 40.7658132,55.13777 40.294754,56.5565398 L38.0279465,58.1107428 L4.81208801,58.1107428 C3.25800578,57.6554816 2.48096466,57.427851 2.48096466,57.427851 C2.48096466,57.427851 0.786346436,55.3787711 0.786346436,55.3787711 C0.786346436,55.3787711 0.377479553,53.041056 0.377479553,53.041056 C0.377479553,53.041056 0.377479553,51.956919 0.377479553,49.7886451 Z" id="Path-13" fill="#EAEAEA"></path>
                <path d="M27.1749442,21.4285714 L27.1749442,27.1428571 L33.4285714,27.1428571 C37.8468494,27.1428571 41.4285714,30.7245791 41.4285714,35.1428571 L41.4285714,52.8264509 C41.4285714,56.4955357 40.7366071,58.5714286 35.733817,58.5714286 L5.6905692,58.5714286 C2.02357701,58.5714286 0,56.5851702 0,52.9690988 L0,35.1428571 C0,30.7245791 3.581722,27.1428571 8,27.1428571 L14.2857143,27.1428571 L14.3345424,21.4285714 L27.1749442,21.4285714 Z M26.374,22.2285714 L15.127,22.2285714 L15.0856851,27.1496928 L15.0789076,27.9428571 L8,27.9428571 C4.0235498,27.9428571 0.8,31.1664069 0.8,35.1428571 L0.8,52.9690988 C0.8,56.1381861 2.46026555,57.7714286 5.6905692,57.7714286 L35.733817,57.7714286 C39.7533455,57.7714286 40.6285714,56.6996688 40.6285714,52.8264509 L40.6285714,35.1428571 C40.6285714,31.1664069 37.4050216,27.9428571 33.4285714,27.9428571 L26.3749442,27.9428571 L26.374,22.2285714 Z" id="Combined-Shape" fill="#9B9B9B" fill-rule="nonzero"></path>
                <path d="M13.4012277,-5.68434189e-14 C15.0017439,1.50669643 15.7504305,2.17456224 18.2892718,2.92131696 C19.9073741,3.3972528 21.5886892,3.3972528 23.3332171,2.92131696 C27.3015485,2.92131696 29.2857143,4.80352493 29.2857143,8.56794085 C29.2857143,12.4135045 29.2857143,14.4777595 29.2857143,17.5878906 C29.2857143,21.7665318 24.9648756,24.8270089 20.6853376,24.8270089 C16.5263293,24.8270089 12.4086217,21.7857143 12.4086217,17.5878906 C12.4086217,14.4777595 12.4086217,13.0004883 12.4086217,8.56794085 C10.8374023,7.14913504 9.48800223,2.92131696 13.4012277,-5.68434189e-14 Z" id="Path-28" fill="#FFFFFF"></path>
                <path d="M11.349926,6.66968754 C11.349926,6.66968754 12.1398411,4.73245267 13.4441967,4.01983384 C16.4905758,7.46902684 20.0659087,7.6348174 23.3697529,6.94281224 C26.4128838,6.25716046 28.8872566,9.54784802 28.8872566,9.54784802 C28.8872566,9.54784802 28.8872566,7.46902684 28.8872566,7.46902684 C28.8872566,7.46902684 28.3213768,5.5003436 28.3213768,5.5003436 C28.3213768,5.5003436 27.8513082,5.00684034 26.911171,4.01983384 L23.5594673,3.32490376 C21.26555,3.5287561 20.1185913,3.63068226 20.1185913,3.63068226 C20.1185913,3.63068226 19.0088488,3.40180806 16.7893639,2.94405964 C14.5592524,1.40648106 13.4441967,0.63769177 13.4441967,0.63769177 C13.4441967,0.63769177 13.0094115,1.00320589 12.1398411,1.73423413 C11.613231,2.99853289 11.349926,3.63068226 11.349926,3.63068226 C11.349926,3.63068226 11.349926,6.66968754 11.349926,6.66968754 Z" id="Path-10" fill="#EAEAEA"></path>
                <path d="M13.4012277,-5.68434189e-14 C15.0017439,1.50669643 15.7504305,2.17456224 18.2892718,2.92131696 C19.9073741,3.3972528 21.5886892,3.3972528 23.3332171,2.92131696 C27.3015485,2.92131696 29.2857143,4.80352493 29.2857143,8.56794085 L29.2857143,17.5878906 C29.2857143,21.7665318 24.9648756,24.8270089 20.6853376,24.8270089 C16.5263293,24.8270089 12.4086217,21.7857143 12.4086217,17.5878906 L12.4086217,8.56794085 C10.8374023,7.14913504 9.48800223,2.92131696 13.4012277,-5.68434189e-14 Z M13.371103,1.063 L13.3197929,1.11009128 C11.0205253,3.27334272 11.225253,6.42146776 12.9447757,7.97419106 L13.2086217,8.21244305 L13.2086217,17.5878906 C13.2086217,21.1203119 16.7130367,24.0270089 20.6853376,24.0270089 C24.7985083,24.0270089 28.4857143,21.08791 28.4857143,17.5878906 L28.4857143,8.56794085 C28.4857143,5.337888 26.9487141,3.79911638 23.5947989,3.72419658 L23.429103,3.722 L23.167482,3.78910481 C21.539972,4.17535594 19.9529481,4.17512384 18.4170533,3.78560661 L18.0635285,3.68880636 C15.9682032,3.07250393 15.0805611,2.59703537 13.5524017,1.22729908 L13.371103,1.063 Z" id="Path-28" fill="#9B9B9B" fill-rule="nonzero"></path>
                <path d="M54.9078602,32.2098936 C56.9157218,33.3265354 57.9689338,34.7833844 56.3525746,38.2932945 L56.3525746,41.8192325 C56.3525746,45.2392886 54.9680828,47.7302379 52.8978671,49.3178842 C56.6802191,50.8942546 58.5714286,53.9789656 58.5714286,58.5714286 L34.2857143,58.5714286 C34.2857143,53.9006309 36.103217,50.8135343 39.7382225,49.3101389 C37.8016684,47.753913 36.4956466,45.3003194 36.4956466,41.8192325 L36.4956466,38.2932945 C35.383389,35.9673882 35.383389,34.3758084 36.9847959,32.7804017 C38.4365288,31.334108 41.1234931,31.334108 42.6019262,32.2098936 C43.5179307,32.7804017 43.9543339,33.2963998 44.6982803,33.5450184 C46.1139616,33.9090571 46.4100363,33.9296522 47.793988,33.5450184 C48.6789118,33.1634487 49.059429,32.7804017 49.8741693,31.9292189 C50.6933341,31.2207371 53.3600063,31.2207371 54.9078602,32.2098936 Z M42.9281177,43.4468836 C42.9281177,44.6946275 44.4734525,47.015478 46.1000425,47.015478 C47.7469425,47.015478 49.4750977,44.6946275 49.4750977,43.4468836 C49.4750977,40.7558007 42.9281177,40.7558007 42.9281177,43.4468836 Z" id="Combined-Shape" fill="#FA9368"></path>
            </g>
        </g>
    </g>
</svg>