<?xml version="1.0" encoding="UTF-8"?>
<svg width="60px" height="60px" viewBox="0 0 60 60" version="1.1" xmlns="http://www.w3.org/2000/svg" xmlns:xlink="http://www.w3.org/1999/xlink">
    <!-- Generator: sketchtool 57.1 (101010) - https://sketch.com -->
    <title>F9D406CB-44EF-4C76-85F6-BF790A8BF98F</title>
    <desc>Created with sketchtool.</desc>
    <g id="Asset-Artboard-Page" stroke="none" stroke-width="1" fill="none" fill-rule="evenodd">
        <g id="maid">
            <g>
                <rect id="Rectangle-Copy-35" x="-3.55271368e-15" y="-3.55271368e-15" width="60" height="60"></rect>
                <g id="Group-30" transform="translate(6.666667, 1.130123)">
                    <path d="M8.9066569,37.2215208 C8.9066569,43.2897717 8.9066569,50.0264447 8.9066569,57.4315399 L5.68434189e-14,57.4315399 C5.68434189e-14,49.1512005 2.96888563,42.4145275 8.9066569,37.2215208 Z M1.01508988,56.4315399 L7.9066569,56.4315399 L7.9066569,39.5483056 C3.51246075,44.0845423 1.22002002,49.6967921 1.01508988,56.4315399 Z" id="Path-4" fill="#9B9B9B" fill-rule="nonzero"></path>
                    <path d="M46.1301676,37.2215208 C46.1301676,43.2897717 46.1301676,50.0264447 46.1301676,57.4315399 L37.2235107,57.4315399 C37.2235107,49.1512005 40.1923964,42.4145275 46.1301676,37.2215208 Z M45.1301676,39.5483056 C40.7359715,44.0845423 38.4435308,49.6967921 38.2386006,56.4315399 L45.1301676,56.4315399 L45.1301676,39.5483056 Z" id="Path-4-Copy" fill="#9B9B9B" fill-rule="nonzero" transform="translate(41.676839, 47.326530) scale(-1, 1) translate(-41.676839, -47.326530) "></path>
                    <path d="M13.8016764,36.9658707 L13.8016764,50.0609635 L32.3893229,50.0609635 L32.3893229,36.9658707 C29.0804036,41.8471912 25.9824626,42.5326838 23.0954997,39.0223486 C20.2459717,42.6224733 17.1480306,41.9369807 13.8016764,36.9658707 Z" id="Path-5" fill="#FF9D74"></path>
                    <path d="M42.9428604,27.8708535 C42.3769774,18.6909918 39.1015361,12.0091884 33.1165365,7.82544333 C27.7561914,4.07835584 19.7742813,4.10161986 14.2671712,7.82544333 C8.05695306,12.0246977 4.45844995,18.7065011 3.47166188,27.8708535 L2.91341146,23.1311074 L4.10432943,16.1171914 L6.85725911,9.91577536 L10.9207357,4.94946676 L15.511556,1.94165426 L20.7305501,0.744876919 L25.9690755,0.744876919 L31.5826009,2.31299215 L36.0894368,5.57007223 L39.7046712,9.91577536 L42.0821126,15.17519 L43.5110677,23.453373 L42.9428604,27.8708535 Z" id="Path-30" fill="#EEEEEE"></path>
                    <path d="M28.0603206,34.4168789 C30.5886002,35.7927674 33.8539746,36.1915305 38.9721858,35.9100023 C41.103527,35.7927674 41.5792008,35.4420661 42.5594254,33.6193528 C44.7743912,27.1583747 44.3406347,18.9076422 41.183286,12.2037441 C38.9721858,7.09497458 36.2455419,4.59776475 33.7776871,2.96139386 C28.0603206,-1.13012308 18.5933609,-0.841503271 12.9830094,2.96139386 C8.86923982,5.81743228 7.4137548,7.84705467 5.32798006,12.2037441 C1.77166495,19.9221923 1.77166495,26.9948004 4.05610913,33.6193528 C4.50481925,34.7720018 5.22559164,35.7943147 7.3553645,35.9100023 C12.5666968,36.1930777 15.6303075,35.7943147 18.5933609,34.4168789 C13.9420751,32.1355882 11.0498856,29.285799 10.3353043,23.9770189 C9.78950967,19.9221923 10.6825943,17.0330491 16.072609,15.6896653 C18.5933609,14.7820726 20.2032649,13.9153734 21.4550959,12.2037441 C23.8541845,15.6896653 26.917539,17.4456468 31.8245621,18.0118496 C34.2146988,18.0118496 36.5759456,18.4490648 36.2455419,22.6139004 C36.2455419,27.4576504 32.8029556,32.7260016 28.0603206,34.4168789 Z M37.2455419,22.6139004 C37.5758768,18.4893293 35.6384609,17.0270722 31.8836255,17.011968 C27.3212375,16.4753764 24.5163118,14.8878713 22.27886,11.6368114 L21.4798855,10.4758863 L20.6479352,11.6134125 C19.6323604,13.0020084 18.3576004,13.8000524 15.7805896,14.7319273 C10.389933,16.0908821 8.65990755,19.0263497 9.34424208,24.1104195 C9.96718615,28.7384062 12.1235141,31.8104819 16.2068986,34.2616262 C13.9388053,34.9453365 11.3198334,35.1238749 7.40960375,34.9114743 C5.97659945,34.8336346 5.42492643,34.378993 4.98798873,33.2565851 C2.66067626,26.5053692 2.96337042,19.7254227 6.23620992,12.6222158 C8.37857129,8.14758194 9.80056437,6.38822274 13.5533047,3.78283361 C18.9634273,0.115734155 27.9629782,0.0299011035 33.1957254,3.7746101 C36.2036077,5.76982069 38.4208985,8.33884895 40.2655536,12.6009432 C43.2737794,18.9893875 43.7689421,26.9309961 41.6397067,33.2180574 C40.8384067,34.7005407 40.6343795,34.8170613 38.9172636,34.9115116 C35.1907427,35.1164896 32.5559598,34.9487042 30.511948,34.3461441 C34.4712397,31.9408224 37.2455419,27.2008377 37.2455419,22.6139004 Z" id="Combined-Shape" fill="#9B9B9B" fill-rule="nonzero"></path>
                    <polygon id="Rectangle" fill="#9B9B9B" points="8.41791062 56.3371621 37.6190476 56.3371621 37.6190476 57.4315399 8.41791062 57.4315399"></polygon>
                </g>
            </g>
        </g>
    </g>
</svg>