<?xml version="1.0" encoding="UTF-8"?>
<svg width="60px" height="60px" viewBox="0 0 60 60" version="1.1" xmlns="http://www.w3.org/2000/svg" xmlns:xlink="http://www.w3.org/1999/xlink">
    <!-- Generator: sketchtool 57.1 (101010) - https://sketch.com -->
    <title>9C9CB0CE-C2D2-4AE9-A4DD-F2FF253F6F27</title>
    <desc>Created with sketchtool.</desc>
    <g id="Asset-Artboard-Page" stroke="none" stroke-width="1" fill="none" fill-rule="evenodd">
        <g id="nurse">
            <g>
                <rect id="Rectangle" x="0" y="0" width="60" height="60"></rect>
                <g id="Group-37" transform="translate(8.571429, 0.000000)">
                    <path d="M11.1459787,31.1671941 C16.724185,30.2205519 20.7839588,27.6853956 23.3252999,23.5617253 C25.076602,26.9272038 27.4170154,29.3152247 30.3465402,30.7257878 L30.7450997,26.3178288 L26.8034494,23.8183171 L23.1370675,19.4992253 L21.26634,21.7564275 L18.2145822,24.3068425 L14.3838937,26.0252263 L10.7286203,26.8398015 L11.1459787,31.1671941 Z" id="Path-34" fill="#EEEEEE"></path>
                    <path d="M20.9535435,47.5571363 L29.8385651,41.4511534 C37.6527613,43.6473636 41.639673,47.748224 41.7993001,53.7537346 C41.7993001,56.9691887 42.6254731,58.0459927 38.8923733,58.0877787 L38.6580737,58.0890532 L3.54402517,58.0890532 C-0.489003569,58.0890532 0.0207555519,57.3305692 0.0207555519,53.7537346 C0.0207555519,47.8636496 3.94087224,43.801426 11.7811056,41.5670637 L12.1973692,41.4511534 L20.9535435,47.5571363 L29.8385651,41.4511534 Z M20.9493863,48.7733663 L12.0120433,42.5410483 C4.5936633,44.6641723 1.02075555,48.378997 1.02075555,53.7537346 C1.02075555,54.0659119 1.01760639,54.3351455 1.01023367,54.7693783 C0.984970345,56.2573183 1.02462622,56.6385329 1.14968495,56.7801733 C1.29993748,56.9503481 1.89328725,57.0753083 3.30168219,57.0879906 L3.54402517,57.0890532 L38.6580737,57.0890532 C39.450759,57.0890532 40.0087138,57.0454287 40.3822409,56.9601804 C40.6410437,56.9011151 40.7521377,56.8419215 40.7894226,56.7962165 C40.8790779,56.6863144 40.9005476,56.3830814 40.8393862,55.135525 C40.8117944,54.5727122 40.7993001,54.192342 40.7996532,53.7803054 C40.6586512,48.4755107 37.2713746,44.7931242 30.4076542,42.6619587 L30.0154274,42.5429829 L20.9493863,48.7733663 L12.0120433,42.5410483 Z M30.0062779,47.7391458 L30.0057134,50.5081458 L32.9450335,50.5087092 L32.9450335,51.9446049 L30.0057134,51.9441458 L30.0062779,54.7912846 L28.5871233,54.7912846 L28.5867134,51.9441458 L25.7277134,51.9446049 L25.7277134,50.5087092 L28.5867134,50.5081458 L28.5871233,47.7391458 L30.0062779,47.7391458 Z M25.9016878,13.2296652 C31.1837964,14.470113 37.2295023,23.4701827 37.2295023,30.7240367 C37.2295023,36.1393373 31.1726389,37.5046066 26.2161443,39.0391359 L25.9378772,39.1479362 C24.5344471,40.0909075 22.8228148,40.6471927 20.7717427,40.6471927 C19.0370915,40.6471927 17.3297222,40.0708001 15.8100459,39.0159016 L15.9231756,39.0391359 C9.76158934,37.7768234 4.10210546,35.6834919 4.10210546,30.2637444 C4.10210546,22.8040276 9.14408795,14.7236705 15.1246108,13.2296652 C19.1325785,12.1005538 21.6818851,12.1005538 25.9016878,13.2296652 Z M23.2782363,19.9683806 C20.3993511,23.8385072 16.5857848,25.9031199 11.2046871,26.834506 C11.2291402,31.8122382 13.2720349,35.9451197 16.190283,38.0802545 L16.2884002,38.1082164 C19.8298884,39.4976372 21.9119213,39.5719713 25.3362922,38.3072443 C28.6037138,36.1373183 30.3590246,31.5512857 30.1759618,26.173986 C27.1148866,24.9665384 25.3616584,23.2411219 23.2782363,19.9683806 Z M15.3669746,14.1998507 C9.94899216,15.5533267 5.10210546,23.1307128 5.10210546,30.2637444 C5.10210546,33.9400721 8.05492607,36.1122518 14.1781006,37.6226188 C11.6799739,35.0372292 10.0255201,30.9520068 10.2194171,25.9795078 C15.8554886,25.1488052 20.1684315,23.135667 23.3193785,18.1390168 C25.2436041,21.2649253 26.8419871,23.9525729 31.1430068,25.4673235 C31.4049006,29.6832566 30.42035,34.4729764 27.7636238,37.5250501 C27.9437546,37.469501 28.1024566,37.4209358 28.2592782,37.3725274 C33.9497354,35.6159711 36.2295023,33.9890782 36.2295023,30.7240367 C36.2295023,24.011948 30.5482268,15.3480609 25.6432065,14.1956815 C21.5949152,13.1124622 19.2284771,13.1124622 15.3669746,14.1998507 Z" id="Combined-Shape" fill="#9B9B9B" fill-rule="nonzero"></path>
                    <path d="M21.0658482,1.0658141e-14 C29.0986349,1.0658141e-14 32.8773687,2.22178614 35.0529636,4.35581653 C36.9221205,6.08309309 37.7291434,8.23567284 36.6763742,10.5904092 C35.271403,12.5746912 33.8641648,14.4495749 32.4546596,16.2150604 C31.4320303,13.8437574 27.0199149,10.9435119 21.0658482,10.9435119 C13.1846401,10.9435119 9.56926618,14.12853 8.54544503,15.5965127 C7.93214952,13.8396302 7.27221416,12.1709291 6.56563895,10.5904092 C5.74893318,8.09981768 6.25492904,6.79313943 7.63997581,5.02099855 C10.145644,2.47281975 14.5220445,1.0658141e-14 21.0658482,1.0658141e-14 Z" id="Combined-Shape" fill="#FA9368"></path>
                </g>
            </g>
        </g>
    </g>
</svg>